<?xml version="1.0" standalone="no"?><!DOCTYPE svg PUBLIC "-//W3C//DTD SVG 1.1//EN" "http://www.w3.org/Graphics/SVG/1.1/DTD/svg11.dtd"><svg t="1567941452002" class="icon" viewBox="0 0 1229 1024" version="1.1" xmlns="http://www.w3.org/2000/svg" p-id="6401" xmlns:xlink="http://www.w3.org/1999/xlink" width="240.0390625" height="200"><defs><style type="text/css"></style></defs><path d="M727.589934 511.003629C817.747574 467.990449 880.387282 375.630138 880.387282 268.529754 880.387282 120.548803 761.051633 0.146779 614.391444 0.146779 467.729542 0.146779 348.399028 120.548803 348.399028 268.529754 348.399028 375.628411 411.072963 467.990449 501.191238 511.003629 276.794902 566.893655 173.024624 788.364303 173.024624 996.414167 173.024624 1011.304474 184.987454 1023.290281 199.66802 1023.290281 214.427312 1023.290281 226.347356 1011.263027 226.347356 996.414167 226.347356 781.944013 347.746977 551.072594 614.357212 551.072594 880.962319 551.072594 1002.361938 781.944013 1002.361938 996.414167 1002.361938 1011.304474 1014.321347 1023.290281 1029.039565 1023.290281 1043.761203 1023.290281 1055.682959 1011.263027 1055.682959 996.414167 1055.756549 788.362578 952.027346 566.891924 727.589934 511.003629M401.720049 268.529754C401.720049 150.215447 497.090674 53.947359 614.389729 53.947359 731.687076 53.947359 827.06455 150.215447 827.06455 268.529754 827.06455 386.806071 731.688791 483.041349 614.389729 483.041349 497.088963 483.041349 401.720049 386.806071 401.720049 268.529754" p-id="6402"></path><path d="M289.591193 493.675062C301.704628 492.512918 311.485397 483.195036 313.397054 471.048634 315.274483 458.902233 308.723164 446.950961 297.528762 442.117612 292.16517 439.796776 166.735153 384.020722 176.700755 252.983258 188.124488 103.764182 349.199973 85.703447 356.177435 84.966098 370.78441 83.538023 381.516729 70.424607 380.101384 55.646543 378.720267 40.833943 365.876056 30.044816 351.043173 31.395184 277.559906 38.476843 135.419579 93.009592 123.499534 248.847541 116.176366 345.771818 167.813348 415.42972 218.911234 456.277477 130.091927 487.484439-15.459262 576.176998 2.556862 820.35006 3.59056 834.46848 15.284697 845.297321 29.080459 845.297321 29.771873 845.297321 30.427347 845.297321 31.118761 845.219615 45.799327 844.098913 56.83799 831.1789 55.725566 816.3663 34.10519 522.802939 279.245656 494.680068 289.591193 493.675062" p-id="6403"></path><path d="M1105.170396 248.847541C1093.282872 93.051036 951.185326 38.513106 877.702062 31.396911 862.942771 30.079352 850.023255 40.873659 848.64214 55.61028 847.226793 70.383163 857.996764 83.538023 872.641393 84.966098 879.502474 85.62056 1040.542024 102.836883 1051.999985 252.943541 1062.010081 383.984459 936.544123 439.796776 931.291776 442.041632 920.061435 446.838718 913.504983 458.70883 915.339622 470.853504 917.14346 482.999906 926.955034 492.435211 939.070182 493.635346 949.499576 494.643804 1194.638331 522.759772 1173.019668 816.290319 1171.908956 831.10292 1182.94591 844.016026 1197.628186 845.138458 1198.317885 845.22134 1198.973363 845.22134 1199.661353 845.22134 1213.460536 845.22134 1225.154673 834.428764 1226.18837 820.274079 1244.240435 576.176998 1098.690959 487.484439 1009.833999 456.277477 1060.933596 415.35374 1112.60481 345.771818 1105.170396 248.847541Z" p-id="6404"></path></svg>