<?xml version="1.0" standalone="no"?><!DOCTYPE svg PUBLIC "-//W3C//DTD SVG 1.1//EN" "http://www.w3.org/Graphics/SVG/1.1/DTD/svg11.dtd"><svg t="1567941160338" class="icon" viewBox="0 0 1024 1024" version="1.1" xmlns="http://www.w3.org/2000/svg" p-id="1106" data-spm-anchor-id="a313x.7781069.0.i1" xmlns:xlink="http://www.w3.org/1999/xlink" width="200" height="200"><defs><style type="text/css"></style></defs><path d="M614.144 949.333333h-204.288c-107.776 0-195.434667-88.618667-195.434667-197.568v-174.954666H147.605333a72.448 72.448 0 0 1-67.776-46.485334 73.258667 73.258667 0 0 1 18.538667-81.024L460.586667 96.064c27.605333-27.690667 75.648-27.562667 103.082666 0.256L926.250667 449.92c21.781333 20.096 29.077333 51.904 17.92 80.426667a72.490667 72.490667 0 0 1-67.776 46.485333h-66.816v174.954667c0 108.928-87.658667 197.546667-195.434667 197.546666zM512 138.666667a8.405333 8.405333 0 0 0-6.122667 2.602666l-0.448 0.426667L142.421333 495.744c-4.821333 4.458667-3.904 8.96-2.986666 11.285333 1.493333 3.84 4.245333 5.781333 8.170666 5.781334h78.378667a52.629333 52.629333 0 0 1 52.437333 52.693333v186.261333c0 73.642667 58.965333 133.568 131.434667 133.568h204.288c72.469333 0 131.434667-59.925333 131.434667-133.568v-186.261333a52.629333 52.629333 0 0 1 52.437333-52.693333h78.378667c3.925333 0 6.677333-1.941333 8.170666-5.781334a9.237333 9.237333 0 0 0-2.346666-10.688L518.570667 141.696A9.002667 9.002667 0 0 0 512 138.666667z m-28.885333-19.882667h0.213333-0.213333z" p-id="1107"></path><path d="M512 800c-76.458667 0-138.666667-62.208-138.666667-138.666667s62.208-138.666667 138.666667-138.666666 138.666667 62.208 138.666667 138.666666-62.208 138.666667-138.666667 138.666667z m0-213.333333c-41.173333 0-74.666667 33.493333-74.666667 74.666666s33.493333 74.666667 74.666667 74.666667 74.666667-33.493333 74.666667-74.666667-33.493333-74.666667-74.666667-74.666666z" p-id="1108" data-spm-anchor-id="a313x.7781069.0.i0" class="selected"></path></svg>
