<?xml version="1.0" standalone="no"?><!DOCTYPE svg PUBLIC "-//W3C//DTD SVG 1.1//EN" "http://www.w3.org/Graphics/SVG/1.1/DTD/svg11.dtd"><svg t="1567941427427" class="icon" viewBox="0 0 1024 1024" version="1.1" xmlns="http://www.w3.org/2000/svg" p-id="5990" xmlns:xlink="http://www.w3.org/1999/xlink" width="200" height="200"><defs><style type="text/css"></style></defs><path d="M823.135226 106.515942 195.565071 106.515942c-71.733765 0-130.09087 63.59848-130.09087 141.771911l0 402.309762c0 78.171384 58.358129 141.769864 130.09087 141.769864l20.697391 0L216.262462 898.128221c0 31.728632 23.611767 57.547671 52.629661 57.547671 10.321066 0 20.581758-3.5038 29.436426-9.965979l216.755696-153.341411 308.055075 0c71.731718 0 130.09087-63.59848 130.09087-141.769864L953.23019 248.288876C953.225073 170.114422 894.867968 106.515942 823.135226 106.515942L823.135226 106.515942zM332.590887 407.282007c21.366633 0 38.688137 18.877953 38.688137 42.163285 0 23.283286-17.321504 42.162262-38.688137 42.162262-21.36254 0-38.689161-18.877953-38.689161-42.162262C293.900703 426.15996 311.228347 407.282007 332.590887 407.282007L332.590887 407.282007zM509.351684 491.607554c-21.366633 0-38.689161-18.877953-38.689161-42.162262 0-23.285333 17.322527-42.163285 38.689161-42.163285 21.36561 0 38.683021 18.877953 38.683021 42.163285C548.034704 472.729601 530.717294 491.607554 509.351684 491.607554L509.351684 491.607554zM686.10941 491.607554c-21.366633 0-38.689161-18.877953-38.689161-42.162262 0-23.285333 17.322527-42.163285 38.689161-42.163285 21.36561 0 38.688137 18.877953 38.688137 42.163285C724.797547 472.729601 707.47502 491.607554 686.10941 491.607554L686.10941 491.607554zM686.10941 491.607554" p-id="5991"></path></svg>