<?xml version="1.0" standalone="no"?><!DOCTYPE svg PUBLIC "-//W3C//DTD SVG 1.1//EN" "http://www.w3.org/Graphics/SVG/1.1/DTD/svg11.dtd"><svg t="1567941414089" class="icon" viewBox="0 0 1024 1024" version="1.1" xmlns="http://www.w3.org/2000/svg" p-id="5872" xmlns:xlink="http://www.w3.org/1999/xlink" width="200" height="200"><defs><style type="text/css"></style></defs><path d="M213.7 128.56c-58.74 0-106.36 47.62-106.36 106.36 0 38 20.27 73.11 53.18 92.11s73.45 19 106.36 0 53.18-54.11 53.18-92.11c0-58.74-47.62-106.36-106.36-106.36zM213.7 405.64c-58.74 0-106.36 47.62-106.36 106.36 0 38 20.27 73.11 53.18 92.11s73.45 19 106.36 0S320.06 550 320.06 512c0-58.74-47.62-106.36-106.36-106.36zM213.7 682.72c-58.74 0-106.36 47.62-106.36 106.36 0 38 20.27 73.11 53.18 92.11s73.45 19 106.36 0 53.18-54.11 53.18-92.11c0-58.74-47.62-106.36-106.36-106.36zM374.9 128.56h541.76v212.72H374.9zM374.9 405.64h541.76v212.72H374.9zM374.9 682.72h541.76v212.72H374.9z" p-id="5873"></path></svg>