<?xml version="1.0" standalone="no"?><!DOCTYPE svg PUBLIC "-//W3C//DTD SVG 1.1//EN" "http://www.w3.org/Graphics/SVG/1.1/DTD/svg11.dtd"><svg t="1567941384874" class="icon" viewBox="0 0 1024 1024" version="1.1" xmlns="http://www.w3.org/2000/svg" p-id="5155" xmlns:xlink="http://www.w3.org/1999/xlink" width="200" height="200"><defs><style type="text/css"></style></defs><path d="M416 832 128 832c-35.2 0-64-28.8-64-64L64 192c0-35.2 28.8-64 64-64l512 0c35.2 0 64 28.8 64 64l0 352C704 561.92 718.08 576 736 576 753.92 576 768 561.92 768 544L768 192c0-70.4-57.6-128-128-128L128 64C57.6 64 0 121.6 0 192l0 576c0 70.4 57.6 128 128 128l288 0C433.92 896 448 881.92 448 864 448 846.08 433.92 832 416 832zM544 256l-320 0C206.08 256 192 270.08 192 288 192 305.92 206.08 320 224 320l320 0C561.92 320 576 305.92 576 288 576 270.08 561.92 256 544 256zM576 480C576 462.08 561.92 448 544 448l-320 0C206.08 448 192 462.08 192 480 192 497.92 206.08 512 224 512l320 0C561.92 512 576 497.92 576 480zM224 640C206.08 640 192 654.08 192 672 192 689.92 206.08 704 224 704l128 0C369.92 704 384 689.92 384 672 384 654.08 369.92 640 352 640L224 640zM952.96 583.04c-12.16-12.16-32-12.16-44.16 0l-237.44 237.44-107.52-107.52c-12.16-12.16-31.36-12.16-42.88 0-12.16 12.16-12.16 31.36 0 42.88l122.88 122.88c1.28 3.2 3.2 5.76 5.76 8.32 12.16 12.16 32 12.16 44.16 0l259.84-259.84C965.12 615.04 965.12 595.2 952.96 583.04z" p-id="5156"></path></svg>